<svg width="48" xmlns="http://www.w3.org/2000/svg" height="48" id="screenshot-619969c8-dcf1-80a1-8006-fbee6862c2cf" viewBox="0 0 48 48" xmlns:xlink="http://www.w3.org/1999/xlink" fill="none" version="1.1"><g id="shape-619969c8-dcf1-80a1-8006-fbee6862c2cf" width="128" height="128" rx="0" ry="0" style="fill: rgb(0, 0, 0);"><g id="shape-619969c8-dcf1-80a1-8006-fbee6862c2d0" style="display: none;"><g class="fills" id="fills-619969c8-dcf1-80a1-8006-fbee6862c2d0"><rect width="48" height="48.000000000000114" x="0" transform="matrix(1.000000, 0.000000, 0.000000, 1.000000, 0.000000, 0.000000)" style="fill: none;" ry="0" fill="none" rx="0" y="0"/></g></g><g id="shape-619969c8-dcf1-80a1-8006-fbee6862c2d1"><g class="fills" id="fills-619969c8-dcf1-80a1-8006-fbee6862c2d1"><path d="M40.302001953125,23.982421875C40.302001953125,14.96954345703125,32.995361328125,7.66290283203125,23.982421875,7.66290283203125C14.969482421875,7.66290283203125,7.662841796875,14.96954345703125,7.662841796875,23.982421875C7.662841796875,32.99530029296875,14.969482421875,40.30194091796875,23.982421875,40.30194091796875L23.982421875,47.9642333984375C10.73681640625,47.9642333984375,0,37.2269287109375,0,23.982421875C0,10.7373046875,10.73681640625,0,23.982421875,0C37.22705078125,0,47.96484375,10.7373046875,47.96484375,23.982421875C47.96484375,37.2269287109375,37.22705078125,47.9642333984375,23.982421875,47.9642333984375L23.982421875,40.30194091796875C32.995361328125,40.30194091796875,40.302001953125,32.99530029296875,40.302001953125,23.982421875Z" style="fill: rgb(88, 196, 245);"/></g></g><g id="shape-619969c8-dcf1-80a1-8006-fbee6862c2d2" style="opacity: 0.7;"><g class="fills" id="fills-619969c8-dcf1-80a1-8006-fbee6862c2d2"><path d="M40.302001953125,44.1685791015625L40.302001953125,24.017578125C40.302001953125,15.1734619140625,33.229736328125,7.66290283203125,24.089111328125,7.66290283203125C21.97265625,7.66290283203125,20.257080078125,5.947265625,20.257080078125,3.8314208984375C20.257080078125,1.71563720703125,21.97265625,0,24.089111328125,0C37.65234375,0,47.96484375,11.13397216796875,47.96484375,24.017578125L47.96484375,44.1685791015625C47.96484375,46.28497314453125,46.249267578125,48,44.1328125,48C42.017578125,48,40.302001953125,46.28497314453125,40.302001953125,44.1685791015625Z" style="fill: rgb(71, 80, 255);"/></g></g></g></svg>