<svg width="48" xmlns="http://www.w3.org/2000/svg" height="48" id="screenshot-619969c8-dcf1-80a1-8006-fbede2dfc1c9" viewBox="0 0 48 48" xmlns:xlink="http://www.w3.org/1999/xlink" fill="none" version="1.1"><g id="shape-619969c8-dcf1-80a1-8006-fbede2dfc1c9" width="128" height="128" rx="0" ry="0" style="fill: rgb(0, 0, 0);"><g id="shape-619969c8-dcf1-80a1-8006-fbede2dfc1ca" style="display: none;"><g class="fills" id="fills-619969c8-dcf1-80a1-8006-fbede2dfc1ca"><rect width="48" height="48" x="0" transform="matrix(1.000000, 0.000000, 0.000000, 1.000000, 0.000000, 0.000000)" style="fill: none;" ry="0" fill="none" rx="0" y="0"/></g></g><g id="shape-619969c8-dcf1-80a1-8006-fbede2dfc1cb"><g class="fills" id="fills-619969c8-dcf1-80a1-8006-fbede2dfc1cb"><path d="M41.04150390625,23.9998779296875C41.04150390625,14.58819580078125,33.41162109375,6.95849609375,24,6.95849609375C14.58837890625,6.95849609375,6.95849609375,14.58819580078125,6.95849609375,23.9998779296875C6.95849609375,33.41168212890625,14.58837890625,41.0413818359375,24,41.0413818359375L24,47.9998779296875C10.7451171875,47.9998779296875,0,37.25469970703125,0,23.9998779296875C0,10.7451171875,10.7451171875,-0.0001220703125,24,-0.0001220703125C37.2548828125,-0.0001220703125,48,10.7451171875,48,23.9998779296875C48,37.25469970703125,37.2548828125,47.9998779296875,24,47.9998779296875L24,41.0413818359375C33.41162109375,41.0413818359375,41.04150390625,33.41168212890625,41.04150390625,23.9998779296875Z" style="fill: rgb(88, 196, 245);"/></g></g><g id="shape-619969c8-dcf1-80a1-8006-fbede2dfc1cc" style="opacity: 0.7;"><g class="fills" id="fills-619969c8-dcf1-80a1-8006-fbede2dfc1cc"><path d="M36.02001953125,35.9803466796875C42.4365234375,29.56396484375,42.94091796875,18.78961181640625,36.1259765625,11.97491455078125C34.767333984375,10.6162109375,34.767333984375,8.4132080078125,36.1259765625,7.05450439453125C37.48486328125,5.69573974609375,39.687744140625,5.69573974609375,41.04638671875,7.05450439453125C50.75048828125,16.75860595703125,49.8994140625,31.942138671875,40.940673828125,40.9007568359375C39.58154296875,42.2593994140625,37.37890625,42.2593994140625,36.02001953125,40.9007568359375C34.661376953125,39.54217529296875,34.661376953125,37.33905029296875,36.02001953125,35.9803466796875Z" style="fill: rgb(71, 80, 255);"/></g></g><g id="shape-619969c8-dcf1-80a1-8006-fbede2dfc1cd" style="opacity: 0.7;"><g class="fills" id="fills-619969c8-dcf1-80a1-8006-fbede2dfc1cd"><path d="M31.810791015625,23.99981689453125C31.810791015625,28.3135986328125,28.313720703125,31.8104248046875,24.000244140625,31.8104248046875C19.6865234375,31.8104248046875,16.189453125,28.3135986328125,16.189453125,23.99981689453125C16.189453125,19.68609619140625,19.6865234375,16.189208984375,24.000244140625,16.189208984375C28.313720703125,16.189208984375,31.810791015625,19.68609619140625,31.810791015625,23.99981689453125Z" style="fill: rgb(71, 80, 255);"/></g></g></g></svg>