<svg width="128" height="128" viewBox="0 0 128 128" fill="none" xmlns="http://www.w3.org/2000/svg">
<path d="M107.471 63.9527C107.471 39.9183 87.9871 20.4346 63.9527 20.4346C39.9183 20.4346 20.4346 39.9183 20.4346 63.9527C20.4346 87.9871 39.9183 107.471 63.9527 107.471V127.905C28.6326 127.905 0 99.2728 0 63.9527C0 28.6326 28.6326 0 63.9527 0C99.2728 0 127.905 28.6326 127.905 63.9527C127.905 99.2728 99.2728 127.905 63.9527 127.905V107.471C87.9871 107.471 107.471 87.9871 107.471 63.9527Z" fill="#58C4F5"/>
<path opacity="0.7" d="M107.471 117.783V64.0473C107.471 40.4627 88.6136 20.4346 64.2368 20.4346C58.594 20.4346 54.0195 15.8602 54.0195 10.2173C54.0195 4.57444 58.594 0 64.2368 0C100.407 0 127.906 29.6914 127.906 64.0473V117.783C127.906 123.426 123.331 128 117.688 128C112.046 128 107.471 123.426 107.471 117.783Z" fill="#4750FF"/>
</svg>
